  0
SECTION
  2
BLOCKS
  0
ENDSEC
  0
SECTION
  2
ENTITIES
  0
LINE
  8
0
 10
0
 20
0
 11
96.52
 21
0
  0
LINE
  8
0
 10
96.52
 20
0
 11
96.52
 21
58.42
  0
LINE
  8
0
 10
96.52
 20
58.42
 11
60.76
 21
58.42
  0
LINE
  8
0
 10
60.76
 20
58.42
 11
60.76
 21
29.21
  0
LINE
  8
0
 10
60.76
 20
29.21
 11
60.4868
 21
26.6111
  0
LINE
  8
0
 10
60.4868
 20
26.6111
 11
59.6793
 21
24.1258
  0
LINE
  8
0
 10
59.6793
 20
24.1258
 11
58.3727
 21
21.8627
  0
LINE
  8
0
 10
58.3727
 20
21.8627
 11
56.6241
 21
19.9207
  0
LINE
  8
0
 10
56.6241
 20
19.9207
 11
54.51
 21
18.3847
  0
LINE
  8
0
 10
54.51
 20
18.3847
 11
52.1227
 21
17.3218
  0
LINE
  8
0
 10
52.1227
 20
17.3218
 11
49.5666
 21
16.7785
  0
LINE
  8
0
 10
49.5666
 20
16.7785
 11
46.9534
 21
16.7785
  0
LINE
  8
0
 10
46.9534
 20
16.7785
 11
44.3973
 21
17.3218
  0
LINE
  8
0
 10
44.3973
 20
17.3218
 11
42.01
 21
18.3847
  0
LINE
  8
0
 10
42.01
 20
18.3847
 11
39.8959
 21
19.9207
  0
LINE
  8
0
 10
39.8959
 20
19.9207
 11
38.1473
 21
21.8627
  0
LINE
  8
0
 10
38.1473
 20
21.8627
 11
36.8407
 21
24.1258
  0
LINE
  8
0
 10
36.8407
 20
24.1258
 11
36.0332
 21
26.6111
  0
LINE
  8
0
 10
36.0332
 20
26.6111
 11
35.76
 21
29.21
  0
LINE
  8
0
 10
35.76
 20
29.21
 11
35.76
 21
58.42
  0
LINE
  8
0
 10
35.76
 20
58.42
 11
0
 21
58.42
  0
LINE
  8
0
 10
0
 20
58.42
 11
0
 21
0
  0
LINE
  8
0
 10
1.04
 20
2.54
 11
1.15418
 21
3.11403
  0
LINE
  8
0
 10
1.15418
 20
3.11403
 11
1.47934
 21
3.60066
  0
LINE
  8
0
 10
1.47934
 20
3.60066
 11
1.96597
 21
3.92582
  0
LINE
  8
0
 10
1.96597
 20
3.92582
 11
2.54
 21
4.04
  0
LINE
  8
0
 10
2.54
 20
4.04
 11
3.11403
 21
3.92582
  0
LINE
  8
0
 10
3.11403
 20
3.92582
 11
3.60066
 21
3.60066
  0
LINE
  8
0
 10
3.60066
 20
3.60066
 11
3.92582
 21
3.11403
  0
LINE
  8
0
 10
3.92582
 20
3.11403
 11
4.04
 21
2.54
  0
LINE
  8
0
 10
4.04
 20
2.54
 11
3.92582
 21
1.96597
  0
LINE
  8
0
 10
3.92582
 20
1.96597
 11
3.60066
 21
1.47934
  0
LINE
  8
0
 10
3.60066
 20
1.47934
 11
3.11403
 21
1.15418
  0
LINE
  8
0
 10
3.11403
 20
1.15418
 11
2.54
 21
1.04
  0
LINE
  8
0
 10
2.54
 20
1.04
 11
1.96597
 21
1.15418
  0
LINE
  8
0
 10
1.96597
 20
1.15418
 11
1.47934
 21
1.47934
  0
LINE
  8
0
 10
1.47934
 20
1.47934
 11
1.15418
 21
1.96597
  0
LINE
  8
0
 10
1.15418
 20
1.96597
 11
1.04
 21
2.54
  0
LINE
  8
0
 10
1.04
 20
55.88
 11
1.15418
 21
56.454
  0
LINE
  8
0
 10
1.15418
 20
56.454
 11
1.47934
 21
56.9407
  0
LINE
  8
0
 10
1.47934
 20
56.9407
 11
1.96597
 21
57.2658
  0
LINE
  8
0
 10
1.96597
 20
57.2658
 11
2.54
 21
57.38
  0
LINE
  8
0
 10
2.54
 20
57.38
 11
3.11403
 21
57.2658
  0
LINE
  8
0
 10
3.11403
 20
57.2658
 11
3.60066
 21
56.9407
  0
LINE
  8
0
 10
3.60066
 20
56.9407
 11
3.92582
 21
56.454
  0
LINE
  8
0
 10
3.92582
 20
56.454
 11
4.04
 21
55.88
  0
LINE
  8
0
 10
4.04
 20
55.88
 11
3.92582
 21
55.306
  0
LINE
  8
0
 10
3.92582
 20
55.306
 11
3.60066
 21
54.8193
  0
LINE
  8
0
 10
3.60066
 20
54.8193
 11
3.11403
 21
54.4942
  0
LINE
  8
0
 10
3.11403
 20
54.4942
 11
2.54
 21
54.38
  0
LINE
  8
0
 10
2.54
 20
54.38
 11
1.96597
 21
54.4942
  0
LINE
  8
0
 10
1.96597
 20
54.4942
 11
1.47934
 21
54.8193
  0
LINE
  8
0
 10
1.47934
 20
54.8193
 11
1.15418
 21
55.306
  0
LINE
  8
0
 10
1.15418
 20
55.306
 11
1.04
 21
55.88
  0
LINE
  8
0
 10
92.48
 20
2.54
 11
92.5942
 21
3.11403
  0
LINE
  8
0
 10
92.5942
 20
3.11403
 11
92.9193
 21
3.60066
  0
LINE
  8
0
 10
92.9193
 20
3.60066
 11
93.406
 21
3.92582
  0
LINE
  8
0
 10
93.406
 20
3.92582
 11
93.98
 21
4.04
  0
LINE
  8
0
 10
93.98
 20
4.04
 11
94.554
 21
3.92582
  0
LINE
  8
0
 10
94.554
 20
3.92582
 11
95.0407
 21
3.60066
  0
LINE
  8
0
 10
95.0407
 20
3.60066
 11
95.3658
 21
3.11403
  0
LINE
  8
0
 10
95.3658
 20
3.11403
 11
95.48
 21
2.54
  0
LINE
  8
0
 10
95.48
 20
2.54
 11
95.3658
 21
1.96597
  0
LINE
  8
0
 10
95.3658
 20
1.96597
 11
95.0407
 21
1.47934
  0
LINE
  8
0
 10
95.0407
 20
1.47934
 11
94.554
 21
1.15418
  0
LINE
  8
0
 10
94.554
 20
1.15418
 11
93.98
 21
1.04
  0
LINE
  8
0
 10
93.98
 20
1.04
 11
93.406
 21
1.15418
  0
LINE
  8
0
 10
93.406
 20
1.15418
 11
92.9193
 21
1.47934
  0
LINE
  8
0
 10
92.9193
 20
1.47934
 11
92.5942
 21
1.96597
  0
LINE
  8
0
 10
92.5942
 20
1.96597
 11
92.48
 21
2.54
  0
LINE
  8
0
 10
92.48
 20
55.88
 11
92.5942
 21
56.454
  0
LINE
  8
0
 10
92.5942
 20
56.454
 11
92.9193
 21
56.9407
  0
LINE
  8
0
 10
92.9193
 20
56.9407
 11
93.406
 21
57.2658
  0
LINE
  8
0
 10
93.406
 20
57.2658
 11
93.98
 21
57.38
  0
LINE
  8
0
 10
93.98
 20
57.38
 11
94.554
 21
57.2658
  0
LINE
  8
0
 10
94.554
 20
57.2658
 11
95.0407
 21
56.9407
  0
LINE
  8
0
 10
95.0407
 20
56.9407
 11
95.3658
 21
56.454
  0
LINE
  8
0
 10
95.3658
 20
56.454
 11
95.48
 21
55.88
  0
LINE
  8
0
 10
95.48
 20
55.88
 11
95.3658
 21
55.306
  0
LINE
  8
0
 10
95.3658
 20
55.306
 11
95.0407
 21
54.8193
  0
LINE
  8
0
 10
95.0407
 20
54.8193
 11
94.554
 21
54.4942
  0
LINE
  8
0
 10
94.554
 20
54.4942
 11
93.98
 21
54.38
  0
LINE
  8
0
 10
93.98
 20
54.38
 11
93.406
 21
54.4942
  0
LINE
  8
0
 10
93.406
 20
54.4942
 11
92.9193
 21
54.8193
  0
LINE
  8
0
 10
92.9193
 20
54.8193
 11
92.5942
 21
55.306
  0
LINE
  8
0
 10
92.5942
 20
55.306
 11
92.48
 21
55.88
  0
ENDSEC
  0
SECTION
  2
OBJECTS
  0
DICTIONARY
  0
ENDSEC
  0
EOF
