  0
SECTION
  2
BLOCKS
  0
ENDSEC
  0
SECTION
  2
ENTITIES
  0
LINE
  8
0
 10
0
 20
0
 11
245
 21
0
  0
LINE
  8
0
 10
245
 20
0
 11
245
 21
140
  0
LINE
  8
0
 10
245
 20
140
 11
0
 21
140
  0
LINE
  8
0
 10
0
 20
140
 11
0
 21
0
  0
LINE
  8
0
 10
11.25
 20
70
 11
12.3426
 21
80.3956
  0
LINE
  8
0
 10
12.3426
 20
80.3956
 11
15.5727
 21
90.3368
  0
LINE
  8
0
 10
15.5727
 20
90.3368
 11
20.7991
 21
99.3893
  0
LINE
  8
0
 10
20.7991
 20
99.3893
 11
27.7935
 21
107.157
  0
LINE
  8
0
 10
27.7935
 20
107.157
 11
36.25
 21
113.301
  0
LINE
  8
0
 10
36.25
 20
113.301
 11
45.7991
 21
117.553
  0
LINE
  8
0
 10
45.7991
 20
117.553
 11
56.0236
 21
119.726
  0
LINE
  8
0
 10
56.0236
 20
119.726
 11
66.4764
 21
119.726
  0
LINE
  8
0
 10
66.4764
 20
119.726
 11
76.7008
 21
117.553
  0
LINE
  8
0
 10
76.7008
 20
117.553
 11
86.25
 21
113.301
  0
LINE
  8
0
 10
86.25
 20
113.301
 11
94.7065
 21
107.157
  0
LINE
  8
0
 10
94.7065
 20
107.157
 11
101.701
 21
99.3893
  0
LINE
  8
0
 10
101.701
 20
99.3893
 11
106.927
 21
90.3368
  0
LINE
  8
0
 10
106.927
 20
90.3368
 11
110.157
 21
80.3956
  0
LINE
  8
0
 10
110.157
 20
80.3956
 11
111.25
 21
70
  0
LINE
  8
0
 10
111.25
 20
70
 11
110.157
 21
59.6044
  0
LINE
  8
0
 10
110.157
 20
59.6044
 11
106.927
 21
49.6632
  0
LINE
  8
0
 10
106.927
 20
49.6632
 11
101.701
 21
40.6107
  0
LINE
  8
0
 10
101.701
 20
40.6107
 11
94.7065
 21
32.8428
  0
LINE
  8
0
 10
94.7065
 20
32.8428
 11
86.25
 21
26.6987
  0
LINE
  8
0
 10
86.25
 20
26.6987
 11
76.7008
 21
22.4472
  0
LINE
  8
0
 10
76.7008
 20
22.4472
 11
66.4764
 21
20.2739
  0
LINE
  8
0
 10
66.4764
 20
20.2739
 11
56.0236
 21
20.2739
  0
LINE
  8
0
 10
56.0236
 20
20.2739
 11
45.7991
 21
22.4472
  0
LINE
  8
0
 10
45.7991
 20
22.4472
 11
36.25
 21
26.6987
  0
LINE
  8
0
 10
36.25
 20
26.6987
 11
27.7935
 21
32.8428
  0
LINE
  8
0
 10
27.7935
 20
32.8428
 11
20.7991
 21
40.6107
  0
LINE
  8
0
 10
20.7991
 20
40.6107
 11
15.5727
 21
49.6632
  0
LINE
  8
0
 10
15.5727
 20
49.6632
 11
12.3426
 21
59.6044
  0
LINE
  8
0
 10
12.3426
 20
59.6044
 11
11.25
 21
70
  0
LINE
  8
0
 10
134.917
 20
24.79
 11
135.149
 21
26.7045
  0
LINE
  8
0
 10
135.149
 20
26.7045
 11
135.833
 21
28.5078
  0
LINE
  8
0
 10
135.833
 20
28.5078
 11
136.929
 21
30.095
  0
LINE
  8
0
 10
136.929
 20
30.095
 11
138.372
 21
31.3739
  0
LINE
  8
0
 10
138.372
 20
31.3739
 11
140.08
 21
32.2701
  0
LINE
  8
0
 10
140.08
 20
32.2701
 11
141.952
 21
32.7317
  0
LINE
  8
0
 10
141.952
 20
32.7317
 11
143.881
 21
32.7317
  0
LINE
  8
0
 10
143.881
 20
32.7317
 11
145.754
 21
32.2701
  0
LINE
  8
0
 10
145.754
 20
32.2701
 11
147.461
 21
31.3739
  0
LINE
  8
0
 10
147.461
 20
31.3739
 11
148.905
 21
30.095
  0
LINE
  8
0
 10
148.905
 20
30.095
 11
150
 21
28.5078
  0
LINE
  8
0
 10
150
 20
28.5078
 11
150.684
 21
26.7045
  0
LINE
  8
0
 10
150.684
 20
26.7045
 11
150.917
 21
24.79
  0
LINE
  8
0
 10
150.917
 20
24.79
 11
150.684
 21
22.8755
  0
LINE
  8
0
 10
150.684
 20
22.8755
 11
150
 21
21.0722
  0
LINE
  8
0
 10
150
 20
21.0722
 11
148.905
 21
19.485
  0
LINE
  8
0
 10
148.905
 20
19.485
 11
147.461
 21
18.2061
  0
LINE
  8
0
 10
147.461
 20
18.2061
 11
145.754
 21
17.3099
  0
LINE
  8
0
 10
145.754
 20
17.3099
 11
143.881
 21
16.8483
  0
LINE
  8
0
 10
143.881
 20
16.8483
 11
141.952
 21
16.8483
  0
LINE
  8
0
 10
141.952
 20
16.8483
 11
140.08
 21
17.3099
  0
LINE
  8
0
 10
140.08
 20
17.3099
 11
138.372
 21
18.2061
  0
LINE
  8
0
 10
138.372
 20
18.2061
 11
136.929
 21
19.485
  0
LINE
  8
0
 10
136.929
 20
19.485
 11
135.833
 21
21.0722
  0
LINE
  8
0
 10
135.833
 20
21.0722
 11
135.149
 21
22.8755
  0
LINE
  8
0
 10
135.149
 20
22.8755
 11
134.917
 21
24.79
  0
LINE
  8
0
 10
136.53
 20
43.33
 11
136.644
 21
43.904
  0
LINE
  8
0
 10
136.644
 20
43.904
 11
136.969
 21
44.3907
  0
LINE
  8
0
 10
136.969
 20
44.3907
 11
137.456
 21
44.7158
  0
LINE
  8
0
 10
137.456
 20
44.7158
 11
138.03
 21
44.83
  0
LINE
  8
0
 10
138.03
 20
44.83
 11
138.604
 21
44.7158
  0
LINE
  8
0
 10
138.604
 20
44.7158
 11
139.091
 21
44.3907
  0
LINE
  8
0
 10
139.091
 20
44.3907
 11
139.416
 21
43.904
  0
LINE
  8
0
 10
139.416
 20
43.904
 11
139.53
 21
43.33
  0
LINE
  8
0
 10
139.53
 20
43.33
 11
139.416
 21
42.756
  0
LINE
  8
0
 10
139.416
 20
42.756
 11
139.091
 21
42.2693
  0
LINE
  8
0
 10
139.091
 20
42.2693
 11
138.604
 21
41.9442
  0
LINE
  8
0
 10
138.604
 20
41.9442
 11
138.03
 21
41.83
  0
LINE
  8
0
 10
138.03
 20
41.83
 11
137.456
 21
41.9442
  0
LINE
  8
0
 10
137.456
 20
41.9442
 11
136.969
 21
42.2693
  0
LINE
  8
0
 10
136.969
 20
42.2693
 11
136.644
 21
42.756
  0
LINE
  8
0
 10
136.644
 20
42.756
 11
136.53
 21
43.33
  0
LINE
  8
0
 10
136.53
 20
96.67
 11
136.644
 21
97.244
  0
LINE
  8
0
 10
136.644
 20
97.244
 11
136.969
 21
97.7307
  0
LINE
  8
0
 10
136.969
 20
97.7307
 11
137.456
 21
98.0558
  0
LINE
  8
0
 10
137.456
 20
98.0558
 11
138.03
 21
98.17
  0
LINE
  8
0
 10
138.03
 20
98.17
 11
138.604
 21
98.0558
  0
LINE
  8
0
 10
138.604
 20
98.0558
 11
139.091
 21
97.7307
  0
LINE
  8
0
 10
139.091
 20
97.7307
 11
139.416
 21
97.244
  0
LINE
  8
0
 10
139.416
 20
97.244
 11
139.53
 21
96.67
  0
LINE
  8
0
 10
139.53
 20
96.67
 11
139.416
 21
96.096
  0
LINE
  8
0
 10
139.416
 20
96.096
 11
139.091
 21
95.6093
  0
LINE
  8
0
 10
139.091
 20
95.6093
 11
138.604
 21
95.2842
  0
LINE
  8
0
 10
138.604
 20
95.2842
 11
138.03
 21
95.17
  0
LINE
  8
0
 10
138.03
 20
95.17
 11
137.456
 21
95.2842
  0
LINE
  8
0
 10
137.456
 20
95.2842
 11
136.969
 21
95.6093
  0
LINE
  8
0
 10
136.969
 20
95.6093
 11
136.644
 21
96.096
  0
LINE
  8
0
 10
136.644
 20
96.096
 11
136.53
 21
96.67
  0
LINE
  8
0
 10
155.333
 20
24.79
 11
155.566
 21
26.7045
  0
LINE
  8
0
 10
155.566
 20
26.7045
 11
156.25
 21
28.5078
  0
LINE
  8
0
 10
156.25
 20
28.5078
 11
157.345
 21
30.095
  0
LINE
  8
0
 10
157.345
 20
30.095
 11
158.789
 21
31.3739
  0
LINE
  8
0
 10
158.789
 20
31.3739
 11
160.496
 21
32.2701
  0
LINE
  8
0
 10
160.496
 20
32.2701
 11
162.369
 21
32.7317
  0
LINE
  8
0
 10
162.369
 20
32.7317
 11
164.298
 21
32.7317
  0
LINE
  8
0
 10
164.298
 20
32.7317
 11
166.17
 21
32.2701
  0
LINE
  8
0
 10
166.17
 20
32.2701
 11
167.878
 21
31.3739
  0
LINE
  8
0
 10
167.878
 20
31.3739
 11
169.321
 21
30.095
  0
LINE
  8
0
 10
169.321
 20
30.095
 11
170.417
 21
28.5078
  0
LINE
  8
0
 10
170.417
 20
28.5078
 11
171.101
 21
26.7045
  0
LINE
  8
0
 10
171.101
 20
26.7045
 11
171.333
 21
24.79
  0
LINE
  8
0
 10
171.333
 20
24.79
 11
171.101
 21
22.8755
  0
LINE
  8
0
 10
171.101
 20
22.8755
 11
170.417
 21
21.0722
  0
LINE
  8
0
 10
170.417
 20
21.0722
 11
169.321
 21
19.485
  0
LINE
  8
0
 10
169.321
 20
19.485
 11
167.878
 21
18.2061
  0
LINE
  8
0
 10
167.878
 20
18.2061
 11
166.17
 21
17.3099
  0
LINE
  8
0
 10
166.17
 20
17.3099
 11
164.298
 21
16.8483
  0
LINE
  8
0
 10
164.298
 20
16.8483
 11
162.369
 21
16.8483
  0
LINE
  8
0
 10
162.369
 20
16.8483
 11
160.496
 21
17.3099
  0
LINE
  8
0
 10
160.496
 20
17.3099
 11
158.789
 21
18.2061
  0
LINE
  8
0
 10
158.789
 20
18.2061
 11
157.345
 21
19.485
  0
LINE
  8
0
 10
157.345
 20
19.485
 11
156.25
 21
21.0722
  0
LINE
  8
0
 10
156.25
 20
21.0722
 11
155.566
 21
22.8755
  0
LINE
  8
0
 10
155.566
 20
22.8755
 11
155.333
 21
24.79
  0
LINE
  8
0
 10
175.75
 20
24.79
 11
175.982
 21
26.7045
  0
LINE
  8
0
 10
175.982
 20
26.7045
 11
176.666
 21
28.5078
  0
LINE
  8
0
 10
176.666
 20
28.5078
 11
177.762
 21
30.095
  0
LINE
  8
0
 10
177.762
 20
30.095
 11
179.205
 21
31.3739
  0
LINE
  8
0
 10
179.205
 20
31.3739
 11
180.913
 21
32.2701
  0
LINE
  8
0
 10
180.913
 20
32.2701
 11
182.786
 21
32.7317
  0
LINE
  8
0
 10
182.786
 20
32.7317
 11
184.714
 21
32.7317
  0
LINE
  8
0
 10
184.714
 20
32.7317
 11
186.587
 21
32.2701
  0
LINE
  8
0
 10
186.587
 20
32.2701
 11
188.295
 21
31.3739
  0
LINE
  8
0
 10
188.295
 20
31.3739
 11
189.738
 21
30.095
  0
LINE
  8
0
 10
189.738
 20
30.095
 11
190.834
 21
28.5078
  0
LINE
  8
0
 10
190.834
 20
28.5078
 11
191.518
 21
26.7045
  0
LINE
  8
0
 10
191.518
 20
26.7045
 11
191.75
 21
24.79
  0
LINE
  8
0
 10
191.75
 20
24.79
 11
191.518
 21
22.8755
  0
LINE
  8
0
 10
191.518
 20
22.8755
 11
190.834
 21
21.0722
  0
LINE
  8
0
 10
190.834
 20
21.0722
 11
189.738
 21
19.485
  0
LINE
  8
0
 10
189.738
 20
19.485
 11
188.295
 21
18.2061
  0
LINE
  8
0
 10
188.295
 20
18.2061
 11
186.587
 21
17.3099
  0
LINE
  8
0
 10
186.587
 20
17.3099
 11
184.714
 21
16.8483
  0
LINE
  8
0
 10
184.714
 20
16.8483
 11
182.786
 21
16.8483
  0
LINE
  8
0
 10
182.786
 20
16.8483
 11
180.913
 21
17.3099
  0
LINE
  8
0
 10
180.913
 20
17.3099
 11
179.205
 21
18.2061
  0
LINE
  8
0
 10
179.205
 20
18.2061
 11
177.762
 21
19.485
  0
LINE
  8
0
 10
177.762
 20
19.485
 11
176.666
 21
21.0722
  0
LINE
  8
0
 10
176.666
 20
21.0722
 11
175.982
 21
22.8755
  0
LINE
  8
0
 10
175.982
 20
22.8755
 11
175.75
 21
24.79
  0
LINE
  8
0
 10
196.167
 20
24.79
 11
196.399
 21
26.7045
  0
LINE
  8
0
 10
196.399
 20
26.7045
 11
197.083
 21
28.5078
  0
LINE
  8
0
 10
197.083
 20
28.5078
 11
198.179
 21
30.095
  0
LINE
  8
0
 10
198.179
 20
30.095
 11
199.622
 21
31.3739
  0
LINE
  8
0
 10
199.622
 20
31.3739
 11
201.33
 21
32.2701
  0
LINE
  8
0
 10
201.33
 20
32.2701
 11
203.202
 21
32.7317
  0
LINE
  8
0
 10
203.202
 20
32.7317
 11
205.131
 21
32.7317
  0
LINE
  8
0
 10
205.131
 20
32.7317
 11
207.004
 21
32.2701
  0
LINE
  8
0
 10
207.004
 20
32.2701
 11
208.711
 21
31.3739
  0
LINE
  8
0
 10
208.711
 20
31.3739
 11
210.155
 21
30.095
  0
LINE
  8
0
 10
210.155
 20
30.095
 11
211.25
 21
28.5078
  0
LINE
  8
0
 10
211.25
 20
28.5078
 11
211.934
 21
26.7045
  0
LINE
  8
0
 10
211.934
 20
26.7045
 11
212.167
 21
24.79
  0
LINE
  8
0
 10
212.167
 20
24.79
 11
211.934
 21
22.8755
  0
LINE
  8
0
 10
211.934
 20
22.8755
 11
211.25
 21
21.0722
  0
LINE
  8
0
 10
211.25
 20
21.0722
 11
210.155
 21
19.485
  0
LINE
  8
0
 10
210.155
 20
19.485
 11
208.711
 21
18.2061
  0
LINE
  8
0
 10
208.711
 20
18.2061
 11
207.004
 21
17.3099
  0
LINE
  8
0
 10
207.004
 20
17.3099
 11
205.131
 21
16.8483
  0
LINE
  8
0
 10
205.131
 20
16.8483
 11
203.202
 21
16.8483
  0
LINE
  8
0
 10
203.202
 20
16.8483
 11
201.33
 21
17.3099
  0
LINE
  8
0
 10
201.33
 20
17.3099
 11
199.622
 21
18.2061
  0
LINE
  8
0
 10
199.622
 20
18.2061
 11
198.179
 21
19.485
  0
LINE
  8
0
 10
198.179
 20
19.485
 11
197.083
 21
21.0722
  0
LINE
  8
0
 10
197.083
 20
21.0722
 11
196.399
 21
22.8755
  0
LINE
  8
0
 10
196.399
 20
22.8755
 11
196.167
 21
24.79
  0
LINE
  8
0
 10
216.583
 20
24.79
 11
216.816
 21
26.7045
  0
LINE
  8
0
 10
216.816
 20
26.7045
 11
217.5
 21
28.5078
  0
LINE
  8
0
 10
217.5
 20
28.5078
 11
218.595
 21
30.095
  0
LINE
  8
0
 10
218.595
 20
30.095
 11
220.039
 21
31.3739
  0
LINE
  8
0
 10
220.039
 20
31.3739
 11
221.746
 21
32.2701
  0
LINE
  8
0
 10
221.746
 20
32.2701
 11
223.619
 21
32.7317
  0
LINE
  8
0
 10
223.619
 20
32.7317
 11
225.548
 21
32.7317
  0
LINE
  8
0
 10
225.548
 20
32.7317
 11
227.42
 21
32.2701
  0
LINE
  8
0
 10
227.42
 20
32.2701
 11
229.128
 21
31.3739
  0
LINE
  8
0
 10
229.128
 20
31.3739
 11
230.571
 21
30.095
  0
LINE
  8
0
 10
230.571
 20
30.095
 11
231.667
 21
28.5078
  0
LINE
  8
0
 10
231.667
 20
28.5078
 11
232.351
 21
26.7045
  0
LINE
  8
0
 10
232.351
 20
26.7045
 11
232.583
 21
24.79
  0
LINE
  8
0
 10
232.583
 20
24.79
 11
232.351
 21
22.8755
  0
LINE
  8
0
 10
232.351
 20
22.8755
 11
231.667
 21
21.0722
  0
LINE
  8
0
 10
231.667
 20
21.0722
 11
230.571
 21
19.485
  0
LINE
  8
0
 10
230.571
 20
19.485
 11
229.128
 21
18.2061
  0
LINE
  8
0
 10
229.128
 20
18.2061
 11
227.42
 21
17.3099
  0
LINE
  8
0
 10
227.42
 20
17.3099
 11
225.548
 21
16.8483
  0
LINE
  8
0
 10
225.548
 20
16.8483
 11
223.619
 21
16.8483
  0
LINE
  8
0
 10
223.619
 20
16.8483
 11
221.746
 21
17.3099
  0
LINE
  8
0
 10
221.746
 20
17.3099
 11
220.039
 21
18.2061
  0
LINE
  8
0
 10
220.039
 20
18.2061
 11
218.595
 21
19.485
  0
LINE
  8
0
 10
218.595
 20
19.485
 11
217.5
 21
21.0722
  0
LINE
  8
0
 10
217.5
 20
21.0722
 11
216.816
 21
22.8755
  0
LINE
  8
0
 10
216.816
 20
22.8755
 11
216.583
 21
24.79
  0
LINE
  8
0
 10
227.97
 20
43.33
 11
228.084
 21
43.904
  0
LINE
  8
0
 10
228.084
 20
43.904
 11
228.409
 21
44.3907
  0
LINE
  8
0
 10
228.409
 20
44.3907
 11
228.896
 21
44.7158
  0
LINE
  8
0
 10
228.896
 20
44.7158
 11
229.47
 21
44.83
  0
LINE
  8
0
 10
229.47
 20
44.83
 11
230.044
 21
44.7158
  0
LINE
  8
0
 10
230.044
 20
44.7158
 11
230.531
 21
44.3907
  0
LINE
  8
0
 10
230.531
 20
44.3907
 11
230.856
 21
43.904
  0
LINE
  8
0
 10
230.856
 20
43.904
 11
230.97
 21
43.33
  0
LINE
  8
0
 10
230.97
 20
43.33
 11
230.856
 21
42.756
  0
LINE
  8
0
 10
230.856
 20
42.756
 11
230.531
 21
42.2693
  0
LINE
  8
0
 10
230.531
 20
42.2693
 11
230.044
 21
41.9442
  0
LINE
  8
0
 10
230.044
 20
41.9442
 11
229.47
 21
41.83
  0
LINE
  8
0
 10
229.47
 20
41.83
 11
228.896
 21
41.9442
  0
LINE
  8
0
 10
228.896
 20
41.9442
 11
228.409
 21
42.2693
  0
LINE
  8
0
 10
228.409
 20
42.2693
 11
228.084
 21
42.756
  0
LINE
  8
0
 10
228.084
 20
42.756
 11
227.97
 21
43.33
  0
LINE
  8
0
 10
227.97
 20
96.67
 11
228.084
 21
97.244
  0
LINE
  8
0
 10
228.084
 20
97.244
 11
228.409
 21
97.7307
  0
LINE
  8
0
 10
228.409
 20
97.7307
 11
228.896
 21
98.0558
  0
LINE
  8
0
 10
228.896
 20
98.0558
 11
229.47
 21
98.17
  0
LINE
  8
0
 10
229.47
 20
98.17
 11
230.044
 21
98.0558
  0
LINE
  8
0
 10
230.044
 20
98.0558
 11
230.531
 21
97.7307
  0
LINE
  8
0
 10
230.531
 20
97.7307
 11
230.856
 21
97.244
  0
LINE
  8
0
 10
230.856
 20
97.244
 11
230.97
 21
96.67
  0
LINE
  8
0
 10
230.97
 20
96.67
 11
230.856
 21
96.096
  0
LINE
  8
0
 10
230.856
 20
96.096
 11
230.531
 21
95.6093
  0
LINE
  8
0
 10
230.531
 20
95.6093
 11
230.044
 21
95.2842
  0
LINE
  8
0
 10
230.044
 20
95.2842
 11
229.47
 21
95.17
  0
LINE
  8
0
 10
229.47
 20
95.17
 11
228.896
 21
95.2842
  0
LINE
  8
0
 10
228.896
 20
95.2842
 11
228.409
 21
95.6093
  0
LINE
  8
0
 10
228.409
 20
95.6093
 11
228.084
 21
96.096
  0
LINE
  8
0
 10
228.084
 20
96.096
 11
227.97
 21
96.67
  0
ENDSEC
  0
SECTION
  2
OBJECTS
  0
DICTIONARY
  0
ENDSEC
  0
EOF
